<svg id="Layer_1" data-name="Layer 1" xmlns="http://www.w3.org/2000/svg" width="24" height="18" viewBox="0 0 24 18"><defs><style>.cls-1{fill:#1b3a4f;}</style></defs><title>send_with_email_icon</title><path class="cls-1" d="M20.9,0H3.1A3.1,3.1,0,0,0,0,3.1V14.9A3.1,3.1,0,0,0,3.1,18H20.9A3.1,3.1,0,0,0,24,14.9V3.1A3.1,3.1,0,0,0,20.9,0ZM3.1,2.2H20.9a.89.89,0,0,1,.88.77l-8.91,7a1.37,1.37,0,0,1-1.71,0L2.23,3A.89.89,0,0,1,3.1,2.2ZM20.9,15.8H3.1a.9.9,0,0,1-.9-.9V5.75l7.6,6a3.59,3.59,0,0,0,4.41,0l7.59-6V14.9A.9.9,0,0,1,20.9,15.8Z"/></svg>