<svg id="Layer_1" data-name="Layer 1" xmlns="http://www.w3.org/2000/svg" width="16.93" height="20.96" viewBox="0 0 16.93 20.96"><defs><style>.cls-1{fill:#20374f;}</style></defs><title>User_preferences_icon</title><path class="cls-1" d="M8.52,9.22A4.61,4.61,0,1,0,3.9,4.61,4.62,4.62,0,0,0,8.52,9.22Zm0-7a2.4,2.4,0,1,1-2.41,2.4A2.41,2.41,0,0,1,8.52,2.2Zm0,9.22A8.46,8.46,0,0,0,.06,19.86,1.1,1.1,0,0,0,1.16,21H15.88a1.1,1.1,0,0,0,1.1-1.1A8.46,8.46,0,0,0,8.52,11.42ZM2.36,18.76a6.26,6.26,0,0,1,12.32,0Z" transform="translate(-0.06)"/></svg>