<svg id="Layer_1" data-name="Layer 1" xmlns="http://www.w3.org/2000/svg" width="49" height="43" viewBox="0 0 49 43"><defs><style>.cls-1{fill:#fff;}</style></defs><title>General Balance_icon</title><path class="cls-1" d="M18.42,28.65l8,2.34a.94.94,0,0,1-.05.16,1.56,1.56,0,0,1-1.37,1,44.05,44.05,0,0,1-7.06.15,1.21,1.21,0,0,0-1.3,1.1,1.19,1.19,0,0,0,1.15,1.25,44.9,44.9,0,0,0,7.6-.18A4,4,0,0,0,29,30a1.19,1.19,0,0,0-.87-1l-9-2.61c-4.44-1.29-9.31,1.09-9.51,1.19l-.07,0L.59,32.81a1.16,1.16,0,0,0-.42,1.62A1.25,1.25,0,0,0,1.23,35a1.36,1.36,0,0,0,.63-.17l8.91-5.16C11.16,29.48,15.07,27.68,18.42,28.65Z" transform="translate(0)"/><path class="cls-1" d="M48.85,26.36A4.71,4.71,0,0,0,42.6,24.5c-3.15,1.39-9.82,4.55-9.89,4.58a1.2,1.2,0,0,0-.57,1.62,1.23,1.23,0,0,0,1.64.57c.07,0,6.7-3.19,9.82-4.55a2.34,2.34,0,0,1,2.28,0l.05,0L29.23,38.84a5.63,5.63,0,0,1-4.14,1l-14.9-2.35a1.28,1.28,0,0,0-1,.26L5.44,40.86a1.2,1.2,0,0,0-.15,1.71,1.25,1.25,0,0,0,.94.44A1.24,1.24,0,0,0,7,42.72L10.36,40l14.36,2.27a8.11,8.11,0,0,0,6-1.43L48.51,27.91A1.21,1.21,0,0,0,48.85,26.36ZM26,25a7,7,0,1,0-5-2.05A7,7,0,0,0,26,25ZM22.75,14.75a4.59,4.59,0,0,1,6.5,0,4.61,4.61,0,0,1,0,6.5,4.59,4.59,0,0,1-6.5,0A4.61,4.61,0,0,1,22.75,14.75ZM34.5,11a5.5,5.5,0,0,0,3.89-9.39,5.5,5.5,0,0,0-7.78,7.78A5.44,5.44,0,0,0,34.5,11ZM32.32,3.32a3.09,3.09,0,1,1,0,4.36A3.07,3.07,0,0,1,32.32,3.32Z" transform="translate(0)"/></svg>