<svg id="Layer_1" data-name="Layer 1" xmlns="http://www.w3.org/2000/svg" width="35.87" height="40.58" viewBox="0 0 35.87 40.58"><defs><style>.cls-1{fill:#fff;}</style></defs><title>Numers Transactions_icon</title><path class="cls-1" d="M2.13,31.76a1.3,1.3,0,0,0-1.3,1.3v6.43a1.3,1.3,0,1,0,2.6,0V33.06A1.3,1.3,0,0,0,2.13,31.76Z" transform="translate(-0.57 -0.21)"/><path class="cls-1" d="M24.13,23.76a1.3,1.3,0,0,0-1.3,1.3V39.49a1.3,1.3,0,1,0,2.6,0V25.06A1.3,1.3,0,0,0,24.13,23.76Z" transform="translate(-0.57 -0.21)"/><path class="cls-1" d="M13.13,28.76a1.3,1.3,0,0,0-1.3,1.3v9.41a1.3,1.3,0,1,0,2.6,0V30.06A1.3,1.3,0,0,0,13.13,28.76Z" transform="translate(-0.57 -0.21)"/><path class="cls-1" d="M35.13,13.76a1.3,1.3,0,0,0-1.3,1.3v24.4a1.3,1.3,0,1,0,2.6,0V15.06A1.3,1.3,0,0,0,35.13,13.76Z" transform="translate(-0.57 -0.21)"/><path class="cls-1" d="M34.95,7.07a1.3,1.3,0,0,0,.54-1.76L33.14.9A1.3,1.3,0,0,0,31.38.36L27,2.71A1.3,1.3,0,0,0,28.18,5l1.62-.86C22.73,25.07,2.84,23.93,2,23.87a1.3,1.3,0,0,0-.19,2.59s.33,0,.86,0c4.24,0,22.81-1.21,29.67-21.61l.88,1.66a1.3,1.3,0,0,0,1.76.54Z" transform="translate(-0.57 -0.21)"/></svg>