<svg id="Layer_1" data-name="Layer 1" xmlns="http://www.w3.org/2000/svg" width="49" height="42.89" viewBox="0 0 49 42.89"><defs><style>.cls-1{fill:#fff;}</style></defs><title>Weekly Amount_icon</title><path class="cls-1" d="M37.93,11.57C44.24,11.57,49,9.1,49,5.81S44.24.06,37.93.06,26.85,2.53,26.85,5.81,31.61,11.57,37.93,11.57Zm0-9c5.27,0,8.63,1.95,8.63,3.29s-3.36,3.29-8.63,3.29S29.3,7.17,29.3,5.82,32.66,2.53,37.93,2.53Zm10.15,9.15a1.22,1.22,0,0,0-1.57.73c-.52,1.43-3.94,3-8.57,3s-7.87-1.46-8.53-2.86a1.23,1.23,0,0,0-1.63-.6,1.24,1.24,0,0,0-.59,1.64c1.19,2.57,5.51,4.28,10.75,4.28a19.15,19.15,0,0,0,6.85-1.17c2.12-.83,3.51-2,4-3.42A1.24,1.24,0,0,0,48.07,11.68Zm0,6.28a1.22,1.22,0,0,0-1.57.73c-.52,1.43-3.94,3-8.57,3s-7.87-1.46-8.53-2.86a1.23,1.23,0,0,0-1.63-.6,1.24,1.24,0,0,0-.59,1.64c1.19,2.57,5.51,4.28,10.75,4.28A19.15,19.15,0,0,0,44.78,23c2.12-.83,3.51-2,4-3.42A1.24,1.24,0,0,0,48.07,18Zm0,6.27A1.22,1.22,0,0,0,46.5,25c-.52,1.43-3.94,3-8.57,3s-7.87-1.46-8.53-2.86a1.23,1.23,0,0,0-1.63-.6,1.24,1.24,0,0,0-.59,1.64c1.19,2.57,5.51,4.28,10.75,4.28a19.15,19.15,0,0,0,6.85-1.17c2.12-.83,3.51-2,4-3.42A1.24,1.24,0,0,0,48.07,24.23Zm0,6.28a1.22,1.22,0,0,0-1.57.73c-.52,1.43-3.94,3-8.57,3s-7.87-1.46-8.53-2.86a1.23,1.23,0,0,0-1.63-.6,1.24,1.24,0,0,0-.59,1.64c1.19,2.57,5.51,4.28,10.75,4.28a19.15,19.15,0,0,0,6.85-1.17c2.12-.83,3.51-2,4-3.42A1.23,1.23,0,0,0,48.07,30.52Zm0,6.27a1.22,1.22,0,0,0-1.57.73c-.52,1.43-3.94,3-8.57,3S30.06,39,29.41,37.62a1.23,1.23,0,0,0-1.63-.6,1.24,1.24,0,0,0-.59,1.64c1.19,2.57,5.51,4.28,10.75,4.28a19.15,19.15,0,0,0,6.85-1.17c2.12-.83,3.51-2,4-3.42A1.24,1.24,0,0,0,48.07,36.79ZM21.21,24.23a1.22,1.22,0,0,0-1.57.73c-.52,1.43-3.94,3-8.57,3S3.2,26.47,2.55,25.07a1.23,1.23,0,0,0-1.63-.6,1.24,1.24,0,0,0-.59,1.64c1.19,2.57,5.51,4.28,10.75,4.28a19.15,19.15,0,0,0,6.85-1.17c2.12-.83,3.51-2,4-3.42A1.24,1.24,0,0,0,21.21,24.23Zm0,6.28a1.22,1.22,0,0,0-1.57.73c-.52,1.43-3.94,3-8.57,3S3.2,32.75,2.55,31.35a1.23,1.23,0,0,0-1.63-.6,1.24,1.24,0,0,0-.59,1.64C1.52,35,5.84,36.67,11.07,36.67a19.15,19.15,0,0,0,6.85-1.17c2.12-.83,3.51-2,4-3.42A1.23,1.23,0,0,0,21.21,30.52Zm0,6.27a1.22,1.22,0,0,0-1.57.73c-.52,1.43-3.94,3-8.57,3S3.2,39,2.55,37.62A1.23,1.23,0,0,0,.92,37a1.24,1.24,0,0,0-.59,1.64c1.19,2.57,5.51,4.28,10.75,4.28a19.15,19.15,0,0,0,6.85-1.17c2.12-.83,3.51-2,4-3.42A1.24,1.24,0,0,0,21.21,36.79ZM11.07,12.61C4.76,12.61,0,15.08,0,18.36s4.76,5.76,11.07,5.76,11.07-2.47,11.07-5.76S17.39,12.61,11.07,12.61Zm0,9.05c-5.27,0-8.63-1.95-8.63-3.29s3.36-3.29,8.63-3.29S19.7,17,19.7,18.36,16.34,21.66,11.07,21.66Z" transform="translate(0 -0.06)"/></svg>