<svg xmlns="http://www.w3.org/2000/svg" width="28" height="24" viewBox="0 0 28 24">
  <g fill="#A9B3BE">
    <path d="M25.5317404 0L5.49528662 0C4.13428828 0 3.02702703 1.20009452 3.02702703 2.67519956L3.02702703 4.16201603 22.4214042 4.16201603C24.6897348 4.16201603 26.5351702 6.16217357 26.5351702 8.62068197L26.5351702 17.1428571C27.3973607 16.7252288 28 15.7875416 28 14.6995677L28 2.67519956C28 1.20009452 26.8927387 0 25.5317404 0zM0 20.5714286L0 21.3918398C0 22.8299794 1.10726125 24 2.46825959 24L22.5047134 24C23.8657117 24 24.972973 22.8299794 24.972973 21.3918398L24.972973 20.5714286 0 20.5714286z"/>
    <path d="M22.5047134,6 L2.46825959,6 C1.10726125,6 0,7.26761404 0,8.82571118 L0,16.2857143 L24.972973,16.2857143 L24.972973,8.82571118 C24.972973,7.26761404 23.8657117,6 22.5047134,6 Z"/>
  </g>
</svg>
