<svg xmlns="http://www.w3.org/2000/svg" width="28" height="30" viewBox="0 0 28 30">
  <g>
    <path d="M27.7963058,8.11857422 L20.2502479,0.176835938 C20.1428182,0.0638671875 19.9946033,0 19.8397934,0 L8.59293388,0 C7.33426446,0 6.31023967,1.03675781 6.31023967,2.31105469 L6.31023967,10.3846289 L1.75231405,10.3846289 C0.81061157,10.3846289 0.0444876033,11.1603516 0.0444876033,12.1139063 L0.0444876033,20.7707813 C0.0444876033,21.7242773 0.81061157,22.5 1.75231405,22.5 L6.31023967,22.5 L6.31023967,27.6929883 C6.31023967,28.9650586 7.33426446,30 8.59293388,30 L25.6728182,30 C26.9314876,30 27.9555124,28.9656445 27.9555124,27.6942773 L27.9555124,8.51865234 C27.9555124,8.36947266 27.8984132,8.22609375 27.7963058,8.11857422 Z M19.9809504,1.55748047 L26.1756033,8.07691406 L19.9809504,8.07691406 L19.9809504,1.55748047 Z M1.75231405,21.3461719 C1.43876033,21.3461719 1.18375207,21.0880664 1.18375207,20.7707813 L1.18375207,12.1139063 C1.18375207,11.7966211 1.43881818,11.538457 1.75231405,11.538457 L17.1339174,11.538457 C17.4474711,11.538457 17.7024793,11.7966211 17.7024793,12.1139063 L17.7024793,20.7707813 C17.7024793,21.0880664 17.4474132,21.3461719 17.1339174,21.3461719 L1.75231405,21.3461719 Z M26.8162479,27.6942773 C26.8162479,28.3294336 26.303281,28.8461719 25.6727603,28.8461719 L8.59293388,28.8461719 C7.96241322,28.8461719 7.44944628,28.3289062 7.44944628,27.6930469 L7.44944628,22.5 L17.1339174,22.5 C18.0756198,22.5 18.8417438,21.7242773 18.8417438,20.7707812 L18.8417438,12.1139062 C18.8417438,11.1603516 18.0756198,10.3846289 17.1339174,10.3846289 L7.44944628,10.3846289 L7.44944628,2.31105469 C7.44944628,1.67291016 7.96241322,1.15382813 8.59293388,1.15382813 L18.841686,1.15382813 L18.841686,8.65382812 C18.841686,8.97246094 19.0967521,9.23074219 19.4112893,9.23074219 L26.8162479,9.23074219 L26.8162479,27.6942773 Z"/>
    <path d="M6.85427273 14.6422266C6.66515702 14.3932031 6.43039669 14.2314844 6.15004959 14.1571289 5.96758678 14.1075586 5.57599174 14.0827734 4.97520661 14.0827734L3.38985124 14.0827734 3.38985124 19.038457 4.37777686 19.038457 4.37777686 17.169082 5.02195041 17.169082C5.46919835 17.169082 5.81075207 17.1454102 6.04661157 17.0980664 6.22016529 17.0597461 6.39094215 16.9814648 6.55894215 16.8631055 6.72694215 16.7448047 6.86543802 16.5819727 6.9744876 16.374668 7.08353719 16.1673633 7.13803306 15.911543 7.13803306 15.6073242 7.13797521 15.2129297 7.04338843 14.89125 6.85427273 14.6422266zM6.00819835 16.0062305C5.93368595 16.1166797 5.8307686 16.1977734 5.69944628 16.2496289 5.56812397 16.3014844 5.30785124 16.3273828 4.91845455 16.3273828L4.37777686 16.3273828 4.37777686 14.9211328 4.85504959 14.9211328C5.21106612 14.9211328 5.44802479 14.9323828 5.56592562 14.9549414 5.7261157 14.9842383 5.85853719 15.0574805 5.96307438 15.174668 6.06766942 15.2918555 6.11996694 15.440625 6.11996694 15.6208594 6.12002479 15.7673438 6.08271074 15.8957813 6.00819835 16.0062305zM11.8873306 15.4366406C11.7805372 15.12 11.6247438 14.8524023 11.4200661 14.6337891 11.2153884 14.4151758 10.9694628 14.2630664 10.6824628 14.1774023 10.468876 14.1142969 10.1584463 14.0827734 9.75128926 14.0827734L7.94563636 14.0827734 7.94563636 19.038457 9.80468595 19.038457C10.1696116 19.038457 10.4610661 19.0035352 10.6791074 18.9336328 10.9706198 18.8390039 11.2020248 18.707168 11.3733223 18.538125 11.6002727 18.315 11.7749256 18.0232031 11.8973388 17.6626172 11.9974793 17.3673633 12.0475207 17.0158008 12.0475207 16.6079297 12.0475207 16.1436914 11.994124 15.7532813 11.8873306 15.4366406zM10.9260744 17.4716602C10.859314 17.6936719 10.7731157 17.8531055 10.6674215 17.9499609 10.5617273 18.046875 10.4287851 18.1156055 10.268595 18.1561523 10.1462397 18.1877344 9.94705785 18.2034961 9.67116529 18.2034961L8.93356198 18.2034961 8.93356198 18.2034961 8.93356198 14.9211328 9.37745455 14.9211328C9.78015702 14.9211328 10.0505537 14.9368945 10.1884711 14.9684766 10.3731322 15.0090234 10.5255702 15.0867773 10.6457273 15.2017383 10.7658843 15.3166992 10.859314 15.4766602 10.9260744 15.6817383 10.9928347 15.8868164 11.0262149 16.1808984 11.0262149 16.564043 11.0262149 16.9471289 10.9928347 17.2496484 10.9260744 17.4716602z"/>
    <polygon points="16.246 14.921 16.246 14.083 12.892 14.083 12.892 19.038 13.88 19.038 13.88 16.932 15.922 16.932 15.922 16.094 13.88 16.094 13.88 14.921"/>
  </g>
</svg>
