<svg xmlns="http://www.w3.org/2000/svg" width="28" height="30" viewBox="0 0 28 30">
  <g>
    <path d="M27.7963058,8.11857422 L20.2502479,0.176835938 C20.1428182,0.0638671875 19.9946033,0 19.8397934,0 L8.59293388,0 C7.33426446,0 6.31023967,1.03675781 6.31023967,2.31105469 L6.31023967,10.3846289 L1.75231405,10.3846289 C0.81061157,10.3846289 0.0444876033,11.1603516 0.0444876033,12.1139063 L0.0444876033,20.7707813 C0.0444876033,21.7242773 0.81061157,22.5 1.75231405,22.5 L6.31023967,22.5 L6.31023967,27.6929883 C6.31023967,28.9650586 7.33426446,30 8.59293388,30 L25.6728182,30 C26.9314876,30 27.9555124,28.9656445 27.9555124,27.6942773 L27.9555124,8.51865234 C27.9555124,8.36947266 27.8984132,8.22609375 27.7963058,8.11857422 Z M19.9809504,1.55748047 L26.1756033,8.07691406 L19.9809504,8.07691406 L19.9809504,1.55748047 Z M1.75231405,21.3461719 C1.43876033,21.3461719 1.18375207,21.0880664 1.18375207,20.7707813 L1.18375207,12.1139063 C1.18375207,11.7966211 1.43881818,11.538457 1.75231405,11.538457 L17.1338595,11.538457 C17.4473554,11.538457 17.7024793,11.7966211 17.7024793,12.1139063 L17.7024793,20.7707813 C17.7024793,21.0880664 17.4473554,21.3461719 17.1338595,21.3461719 L1.75231405,21.3461719 Z M26.8162479,27.6942773 C26.8162479,28.3294336 26.303281,28.8461719 25.6727603,28.8461719 L8.59293388,28.8461719 C7.96241322,28.8461719 7.44944628,28.3289062 7.44944628,27.6930469 L7.44944628,22.5 L17.1338017,22.5 C18.075562,22.5 18.841686,21.7242773 18.841686,20.7707812 L18.841686,12.1139062 C18.841686,11.1603516 18.075562,10.3846289 17.1338017,10.3846289 L7.44944628,10.3846289 L7.44944628,2.31105469 C7.44944628,1.67291016 7.96241322,1.15382813 8.59293388,1.15382813 L18.841686,1.15382813 L18.841686,8.65382812 C18.841686,8.97246094 19.0967521,9.23074219 19.4112893,9.23074219 L26.8162479,9.23074219 L26.8162479,27.6942773 Z"/>
    <path d="M15.6571488,16.8058008 C15.5269835,16.5927539 15.346719,16.4248828 15.1164711,16.3020117 C14.8861653,16.1792578 14.5307851,16.0604297 14.050157,15.9454688 C13.5695289,15.8305078 13.2669669,15.7200586 13.1423554,15.6141797 C13.0443554,15.5308008 12.9954132,15.4303711 12.9954132,15.3133008 C12.9954132,15.1848047 13.0476529,15.082207 13.1523636,15.005625 C13.3148099,14.8862109 13.539562,14.8265039 13.8265041,14.8265039 C14.104595,14.8265039 14.3132645,14.8823438 14.4523388,14.9937891 C14.5913554,15.105293 14.6820083,15.288457 14.7242975,15.5431641 L15.7121653,15.4991602 C15.6966612,15.0439453 15.5337521,14.6799609 15.2233223,14.4073828 C14.9128347,14.1346289 14.4506612,13.9983398 13.8366281,13.9983398 C13.4605372,13.9983398 13.1395785,14.0557031 12.8736942,14.1707227 C12.6078099,14.2856836 12.4041736,14.4529688 12.2629008,14.6726367 C12.1216281,14.8924219 12.050876,15.1285547 12.050876,15.3809766 C12.050876,15.7729688 12.2011157,16.1054297 12.501595,16.3781836 C12.7151818,16.5718945 13.0867025,16.7353125 13.6163306,16.8682617 C14.0278843,16.9719727 14.2916281,17.0441016 14.4072149,17.0845898 C14.5764298,17.1454688 14.6948512,17.2170117 14.7626529,17.2992188 C14.8305702,17.3816016 14.8644711,17.4812109 14.8644711,17.5985156 C14.8644711,17.7809766 14.7838264,17.9404688 14.6225372,18.0767578 C14.4611901,18.2130469 14.2215124,18.28125 13.9032727,18.28125 C13.6029091,18.28125 13.3642727,18.204668 13.1874215,18.0513281 C13.0105702,17.8981641 12.8932479,17.6581641 12.835281,17.3313281 L11.8740248,17.425957 C11.9385289,17.9803711 12.1366116,18.4024219 12.468157,18.6919922 C12.7997025,18.9814453 13.274719,19.1262891 13.8933223,19.1262891 C14.3182397,19.1262891 14.6732727,19.0659961 14.9580744,18.9454102 C15.242876,18.825 15.463,18.6406641 15.6187934,18.3926953 C15.7745868,18.1449023 15.8525124,17.8789453 15.8525124,17.5949414 C15.8523967,17.2817578 15.787314,17.0186719 15.6571488,16.8058008 Z"/>
    <polygon points="8.964 18.203 8.964 14.123 7.976 14.123 7.976 19.038 11.42 19.038 11.42 18.203"/>
    <polygon points="5.77 16.49 7.292 14.083 6.147 14.083 5.186 15.675 4.204 14.083 3.05 14.083 4.565 16.452 2.893 19.038 4.077 19.038 5.165 17.325 6.25 19.038 7.442 19.038"/>
  </g>
</svg>
