<svg xmlns="http://www.w3.org/2000/svg" width="19" height="19" viewBox="0 0 19 19">
  <g fill="#20374F">
    <path d="M16.7734375,1.484375 L15.8828125,1.484375 L15.8828125,0 L14.3984375,0 L14.3984375,1.484375 L4.6015625,1.484375 L4.6015625,0 L3.1171875,0 L3.1171875,1.484375 L2.2265625,1.484375 C0.998835937,1.484375 0,2.48321094 0,3.7109375 L0,16.7734375 C0,18.0011641 0.998835937,19 2.2265625,19 L16.7734375,19 C18.0011641,19 19,18.0011641 19,16.7734375 L19,3.7109375 C19,2.48321094 18.0011641,1.484375 16.7734375,1.484375 Z M17.515625,16.7734375 C17.515625,17.1826797 17.1826797,17.515625 16.7734375,17.515625 L2.2265625,17.515625 C1.81732031,17.515625 1.484375,17.1826797 1.484375,16.7734375 L1.484375,6.9765625 L17.515625,6.9765625 L17.515625,16.7734375 Z M17.515625,5.4921875 L1.484375,5.4921875 L1.484375,3.7109375 C1.484375,3.30169531 1.81732031,2.96875 2.2265625,2.96875 L3.1171875,2.96875 L3.1171875,4.453125 L4.6015625,4.453125 L4.6015625,2.96875 L14.3984375,2.96875 L14.3984375,4.453125 L15.8828125,4.453125 L15.8828125,2.96875 L16.7734375,2.96875 C17.1826797,2.96875 17.515625,3.30169531 17.515625,3.7109375 L17.515625,5.4921875 Z"/>
    <rect width="1.484" height="1.484" x="2.82" y="8.535"/>
    <rect width="1.484" height="1.484" x="5.789" y="8.535"/>
    <rect width="1.484" height="1.484" x="8.758" y="8.535"/>
    <rect width="1.484" height="1.484" x="11.727" y="8.535"/>
    <rect width="1.484" height="1.484" x="14.695" y="8.535"/>
    <rect width="1.484" height="1.484" x="2.82" y="11.504"/>
    <rect width="1.484" height="1.484" x="5.789" y="11.504"/>
    <rect width="1.484" height="1.484" x="8.758" y="11.504"/>
    <rect width="1.484" height="1.484" x="11.727" y="11.504"/>
    <rect width="1.484" height="1.484" x="2.82" y="14.473"/>
    <rect width="1.484" height="1.484" x="5.789" y="14.473"/>
    <rect width="1.484" height="1.484" x="8.758" y="14.473"/>
    <rect width="1.484" height="1.484" x="11.727" y="14.473"/>
    <rect width="1.484" height="1.484" x="14.695" y="11.504"/>
  </g>
</svg>
