<svg id="Layer_1" data-name="Layer 1" xmlns="http://www.w3.org/2000/svg" width="17" height="17" viewBox="0 0 17 17"><defs><style>.cls-1{fill:#fff;}.cls-2{fill:#d0d8e3;}.cls-3{fill:#00a8cc;}</style></defs><title>check box active</title><path id="check-box-active-a" class="cls-1" d="M3.19.5H13.81a2.86,2.86,0,0,1,2.9,2.82V13.68a2.86,2.86,0,0,1-2.9,2.82H3.19a2.86,2.86,0,0,1-2.9-2.82V3.32A2.86,2.86,0,0,1,3.19.5Z"/><path class="cls-2" d="M13.5,17H3.5A3.5,3.5,0,0,1,0,13.5V3.5A3.5,3.5,0,0,1,3.5,0h10A3.5,3.5,0,0,1,17,3.5v10A3.5,3.5,0,0,1,13.5,17ZM3.5,1A2.5,2.5,0,0,0,1,3.5v10A2.5,2.5,0,0,0,3.5,16h10A2.5,2.5,0,0,0,16,13.5V3.5A2.5,2.5,0,0,0,13.5,1Z"/><path class="cls-3" d="M7,12.9a2,2,0,0,1-1.4-.57L3.3,10.14A1,1,0,0,1,4.7,8.7L7,10.9l5.92-6.29A1,1,0,0,1,14.33,6L8.41,12.27A2,2,0,0,1,7,12.9Z"/></svg>