<svg xmlns="http://www.w3.org/2000/svg" width="17" height="16" viewBox="0 0 17 16">
  <path fill="#FFF" fill-rule="evenodd" d="M30.9273365,13.4433548 C30.7906427,13.147843 30.5536947,13 30.2155674,13 L14.7841618,13 C14.4467743,13 14.2090864,13.147843 14.0725776,13.4433548 C13.9358839,13.7538601 13.9923001,14.0188618 14.2416413,14.2387086 L20.1853202,19.8408791 L20.1853202,25.3633748 C20.1853202,25.5602083 20.2618983,25.7310647 20.4143145,25.8748978 L23.5009286,28.7834657 C23.645576,28.9278219 23.8261079,29 24.043634,29 C24.1396341,29 24.2400734,28.9809966 24.3449521,28.9428154 C24.6584782,28.8141501 24.8153338,28.5908165 24.8153338,28.2728144 L24.8153338,19.8408791 L30.7590127,14.2387086 C31.0081689,14.0188618 31.0638452,13.7538601 30.9273365,13.4433548 Z" transform="translate(-14 -13)"/>
</svg>
