<svg xmlns="http://www.w3.org/2000/svg" width="20" height="20" viewBox="0 0 20 20">
  <g fill="#20374F">
    <path d="M.529901639 10.1608525C.530032787 10.1608525.530163934 10.1608525.530295082 10.1608525L1.84177049 10.1598689C2.11337705 10.1596721 2.33337705 9.93934426 2.33318033 9.6677377 2.332 8.03495082 2.8575082 6.48459016 3.85285246 5.18439344 5.25868852 3.34786885 7.39711475 2.29455738 9.71967213 2.29455738 11.3516066 2.29455738 12.8990164 2.81888525 14.1948197 3.81081967 14.6242623 4.13960656 15.0098361 4.50688525 15.3505574 4.90944262L12.9287869 4.48190164C12.800459 4.45921311 12.6681967 4.48852459 12.5612459 4.56327869 12.4543607 4.63809836 12.3816393 4.7522623 12.3589508 4.88072131L12.1309508 6.17219672C12.0837377 6.43967213 12.2622951 6.6947541 12.5297705 6.74196721L18.3415082 7.768C18.3699672 7.77304918 18.3984918 7.77547541 18.4270164 7.77547541 18.5272131 7.77547541 18.6257705 7.74485246 18.7090492 7.68662295 18.8159344 7.61180328 18.8886557 7.49763934 18.9113443 7.36918033L19.937377 1.55737705C19.9845902 1.28990164 19.8060328 1.03481967 19.5385574.987606557L18.247082.759606557C17.979082.712196721 17.7245246.89095082 17.6773115 1.15842623L17.2455082 3.60432787C16.7611148 3.00354098 16.2048525 2.45921311 15.5899016 1.98845902 13.8905574.687606557 11.8612459 0 9.7212459 0 6.67718033 0 3.87396721 1.38118033 2.03042623 3.78931148.725508197 5.49390164.0365901639 7.52721311.0380327869 9.66944262.0380983607 9.79986885.0900327869 9.92491803.182295082 10.0171148.274557377 10.1091803.399540984 10.1608525.529901639 10.1608525zM19.8105574 9.97580328C19.7183607 9.8837377 19.5933115 9.832 19.4630164 9.832 19.4628852 9.832 19.4627541 9.832 19.462623 9.832L18.1511475 9.83298361C17.879541 9.83318033 17.659541 10.0535082 17.6597377 10.3251148 17.660918 11.9579016 17.1354098 13.5082623 16.1400656 14.808459 14.7341639 16.6449836 12.5957377 17.6982951 10.2731803 17.6982951 8.64131148 17.6982951 7.09390164 17.1739672 5.79809836 16.1820328 5.36865574 15.8532459 4.98308197 15.4859672 4.64236066 15.0834098L7.06413115 15.5109508C7.19272131 15.5337049 7.32478689 15.5043934 7.43160656 15.4295738 7.5384918 15.3547541 7.61121311 15.2405902 7.63390164 15.1121311L7.86183607 13.8206557C7.90904918 13.5531803 7.7304918 13.2980984 7.46301639 13.2508852L1.65127869 12.2248525C1.52301639 12.2022295 1.39068852 12.2314754 1.28380328 12.3062295 1.17691803 12.3810492 1.10419672 12.4952131 1.0815082 12.6236721L.0555409836 18.4354754C.00832786885 18.7029508.186885246 18.9580328.454360656 19.0052459L1.74583607 19.2332459C1.7747541 19.2383607 1.80354098 19.2408525 1.83193443 19.2408525 2.06603279 19.2408525 2.2735082 19.0729836 2.31567213 18.8344262L2.74747541 16.3885246C3.23186885 16.9893115 3.78813115 17.5336393 4.40308197 18.0043934 6.10229508 19.3052459 8.13160656 19.9928525 10.2716721 19.9928525 13.3158033 19.9928525 16.1189508 18.6116721 17.9624262 16.203541 19.2673443 14.4989508 19.9562623 12.4656393 19.9548197 10.3234098 19.9547541 10.1930492 19.9028197 10.068 19.8105574 9.97580328z"/>
  </g>
</svg>
